/* XPM */
static char *_a644b36b14b4e24f9c30945f2485269MbIghau8AVWGGkMi[] = {
/* columns rows colors chars-per-pixel */
"32 32 6 1 ",
"  c black",
". c #151313",
"X c #4D0707",
"o c #540101",
"O c #941919",
"+ c None",
/* pixels */
"++++++++++++++++++++++++++++++++",
"++++++++++++++++++++++++++++++++",
"++++++++++++++++++++++++++++++++",
"++++++++++++++++++++++++++++++++",
"++++++++++++++++++++++++++++++++",
"++++++++++++++++++++++++++++++++",
"++++++++++++++++++++++++++++++++",
"+++++++++++++++++ ++++++++++++++",
"++++++++++++++++ . +++++++++++++",
"++++++++++++++++ .. ++++++++++++",
"+++++++++++++++ OXX ++++++++++++",
"+++++++++++++++ XOX ++++++++++++",
"+++++++++++++++ OXXO +++++++++++",
"+++++++++++++++ XXX ++++++++++++",
"+++++++++++++++ XoO ++++++++++++",
"+++++++++++++++ oOO ++++++++++++",
"+++++++++++++++ ooo ++++++++++++",
"+++++++++++++++     ++++++++++++",
"++++++++++++++++++++++++++++++++",
"++++++++++++++++++++++++++++++++",
"++++++++++++++++++++++++++++++++",
"++++++++++++++++++++++++++++++++",
"++++++++++++++++++++++++++++++++",
"++++++++++++++++++++++++++++++++",
"++++++++++++++++++++++++++++++++",
"++++++++++++++++++++++++++++++++",
"++++++++++++++++++++++++++++++++",
"++++++++++++++++++++++++++++++++",
"++++++++++++++++++++++++++++++++",
"++++++++++++++++++++++++++++++++",
"++++++++++++++++++++++++++++++++",
"++++++++++++++++++++++++++++++++"
};
