/* XPM */
static char *_fe708259d734697d96899b94c60bc06bWNvgSw3eCfpiFYr[] = {
/* columns rows colors chars-per-pixel */
"32 32 16 1 ",
"  c #000001",
". c #1F1E2C",
"X c #201F2D",
"o c #603914",
"O c #284C57",
"+ c #325F6D",
"@ c #3B4B7B",
"# c #3E4879",
"$ c #019245",
"% c #F7CF18",
"& c #BA925A",
"* c #4F96A8",
"= c #FEDDB8",
"- c None",
"; c #F2F3F2",
": c white",
/* pixels */
"--------------------------------",
"----------------- --------------",
"---------------  *    ----------",
"-------------- *+*++++   -------",
"--------------  +++++++ --------",
"------------  ** **OO**+ -------",
"----------  **+*+*OOO*  --------",
"--------- ++*+++++O++ ++ -------",
"-------- O ++++*++*+++++ -------",
"-------- OOOOOOOOOOOO  OO ------",
"------- OOO=========OO OO ------",
"-------  O==========O=O O ------",
"------- OO==========O=OO  ------",
"-------  O=  ====== O=OO  ------",
"------- = =: ======:O=OO= ------",
"------- =O=oo======oO=OO= ------",
"------- @O============OO@ ------",
"-------- OO===========OO -------",
"-------- OOO======: OOOO -------",
"------- OOO  ::==: #   OOO------",
"--------   ## ::: % -#   -------",
"---------- # ###  &  # ---------",
"--------- #     %%%%% # --------",
"--------- # %%%%$$%$$ # --------",
"-------- ##.$$%$%%%%%..# -------",
"-------- #= %%%%$$%$$ =# -------",
"-------- #.X$$%$$$%%$ .# -------",
"---------   %%%%%%    . --------",
"----------- #XXX XXX# ----------",
"----------- #X XXXX # ----------",
"-----------  ;    ;   ----------",
"------------   --   ------------"
};
