/* XPM */
static char *_22f4c851d2e42ca9b474656bb575866r0NhqMbwup1mcfEX[] = {
/* columns rows colors chars-per-pixel */
"32 32 68 1 ",
"  c None",
". c black",
"X c #010000",
"o c #000100",
"O c #010100",
"+ c #000001",
"@ c #010001",
"# c #000101",
"$ c #010101",
"% c #1E1E1F",
"& c #1F1E1F",
"* c #211A40",
"= c #201B40",
"- c #221C42",
"; c #231C42",
": c #221D42",
"> c #231D42",
", c #221C43",
"< c #231C43",
"1 c #221D43",
"2 c #C2AEC8",
"3 c #C3AEC8",
"4 c #C2AFC8",
"5 c #C2AEC9",
"6 c #C3AEC9",
"7 c #C3AFC9",
"8 c #C4AFD0",
"9 c #D0D0D1",
"0 c #D1D0D1",
"q c #FAE3D6",
"w c #FBE3D6",
"e c #FBE2D7",
"r c #FBE3D7",
"t c #FBE4D4",
"y c #FEE0D8",
"u c #FFE0D8",
"i c #FEE1D8",
"p c #FFE1D8",
"a c #FEE0D9",
"s c #FEE1D9",
"d c #E2D6E6",
"f c #E3D6E6",
"g c #E2D7E6",
"h c #E3D7E6",
"j c #E3D6E7",
"k c #E2D7E7",
"l c #E3D7E7",
"z c #E2D8E6",
"x c #E3D8E6",
"c c #E2D9E6",
"v c #E3D9E6",
"b c #E2D8E7",
"n c #E2D9E7",
"m c #E4D6E8",
"M c #E4D6E9",
"N c #E4D7E9",
"B c #E5D7E9",
"V c #FAEEF5",
"C c #FAEFF5",
"Z c #FAECF6",
"A c #FBECF6",
"S c #FAEDF6",
"D c #FBEDF6",
"F c #FAECF7",
"G c #FBECF7",
"H c #FAEDF7",
"J c #FBEDF7",
"K c white",
/* pixels */
"                                ",
"                                ",
"                                ",
"               .                ",
"             ..V....            ",
"          ...ffV5fff.           ",
"         .VVVfB55VVf.           ",
"        .9cffffcfVVff.          ",
"      ..9ccfBcfcffVff.          ",
"     .cccffccccffVffff.         ",
"     .ccccfccVcfcBfff.          ",
"     .cccVVVffVcVcBf.           ",
"      ..cww5f55V5V55.           ",
"       .www...w8..55.           ",
"        ...K....ww5.            ",
"        .yw...wyy5.             ",
"        .yyyyywyyy.             ",
"         .1111111.              ",
"          .1...1..              ",
"          .111111.              ",
"          .111.1..              ",
"          .111.1..              ",
"          .111.1..              ",
"          .111.t..              ",
"          ..111...              ",
"           .11==1.              ",
"            .111=.              ",
"             .111.              ",
"             .111.              ",
"             .&&&.              ",
"              ...               ",
"                                "
};
