/* XPM */
static char *_07ad734821842bbd42ca22b22ade7ffDHcfuUH3fHxk8wV0[] = {
/* columns rows colors chars-per-pixel */
"32 32 72 1 ",
"  c #72C37A",
". c black",
"X c #010000",
"o c #000100",
"O c #010100",
"+ c #000001",
"@ c #010001",
"# c #000101",
"$ c #010101",
"% c #1E1E1E",
"& c #1E1E1F",
"* c #201A40",
"= c #211A40",
"- c #201B40",
"; c #201B41",
": c #211B41",
"> c #221C42",
", c #231C42",
"< c #221D42",
"1 c #231D42",
"2 c #221C43",
"3 c #231C43",
"4 c #221D43",
"5 c #231D43",
"6 c #C2AEC8",
"7 c #C3AEC8",
"8 c #C2AEC9",
"9 c #C2AFC9",
"0 c #C3AFC9",
"q c #C4AFD0",
"w c #C4AED1",
"e c #D0D0D0",
"r c #FBE3D6",
"t c #FAE3D7",
"y c #FAE4D4",
"u c #FBE4D4",
"i c #FAE5D4",
"p c #FBE5D4",
"a c #FEE0D8",
"s c #FFE0D8",
"d c #FEE1D8",
"f c #FFE1D8",
"g c #FEE0D9",
"h c #FFE0D9",
"j c #FEE1D9",
"k c #FFE1D9",
"l c #E2D6E6",
"z c #E3D6E6",
"x c #E2D7E6",
"c c #E3D7E6",
"v c #E3D6E7",
"b c #E2D7E7",
"n c #E3D7E7",
"m c #E2D8E6",
"M c #E3D8E6",
"N c #E2D9E6",
"B c #E3D9E6",
"V c #E2D8E7",
"C c #E2D9E7",
"Z c #E4D7E8",
"A c #E4D7E9",
"S c #FAEFF5",
"D c #FBEFF5",
"F c #FAECF6",
"G c #FBECF6",
"H c #FAEDF6",
"J c #FBEDF6",
"K c #FBECF7",
"L c #FAEDF7",
"P c #FBEDF7",
"I c #FFFFFE",
"U c white",
/* pixels */
"                                ",
"                                ",
"                                ",
"               X                ",
"             XXSXXX             ",
"          XXXllS6llXX           ",
"         XSSSlA66SSllXX         ",
"          XllllllSSSSlSX        ",
"         XXlAlllllSlllXe        ",
"        XllMMMMllSllllSX        ",
"         XlMMSMlMAlAAMSX        ",
"        XSSSllSMSMAhMllSX       ",
"        X6l6l66S6S6h6MlqX       ",
"       X6X6hXXXqh6XXX6XqrX      ",
"        XyXXUXXXXXUXXX6rX       ",
"         X6yXXXhhhXXXhrX        ",
"          XhhhhhhhhhhhX         ",
"           X444X44444X          ",
"            XX4XXX4XX           ",
"           X444X44444X          ",
"          XX444X44444X          ",
"          X4X44X4444X4X         ",
"          X4X44X4444X4X         ",
"          XyX44X4444XyX         ",
"           XXXXXXXXXXX          ",
"            X===X===X           ",
"             X=X X=X            ",
"             X=X X=X            ",
"             X&X X&X            ",
"             XXX XXX            ",
"                                ",
"                                "
};
