/* XPM */
static char *_45deaba9f544c4381ae1a593bab6aabAe5tbI9KuXhjkNX9[] = {
/* columns rows colors chars-per-pixel */
"32 32 70 1 ",
"  c None",
". c #000000",
"X c #010000",
"o c #000100",
"O c #010100",
"+ c #000001",
"@ c #010001",
"# c #000101",
"$ c #1E1E1E",
"% c gray12",
"& c #201A40",
"* c #211A40",
"= c #201B40",
"- c #211B40",
"; c #201A41",
": c #211A41",
"> c #201B41",
", c #211B41",
"< c #221C42",
"1 c #231C42",
"2 c #221D42",
"3 c #231D42",
"4 c #221C43",
"5 c #231C43",
"6 c #221D43",
"7 c #231D43",
"8 c #C2AEC8",
"9 c #C2AFC9",
"0 c #C3AFC9",
"q c #FAE4D4",
"w c #FBE4D4",
"e c #FBE5D4",
"r c #FFE0D8",
"t c #FEE1D8",
"y c #FFE1D8",
"u c #FEE0D9",
"i c #FFE0D9",
"p c #FEE1D9",
"a c #FFE1D9",
"s c #E2D6E6",
"d c #E3D6E6",
"f c #E2D7E6",
"g c #E3D7E6",
"h c #E2D6E7",
"j c #E3D6E7",
"k c #E2D7E7",
"l c #E3D7E7",
"z c #E2D8E6",
"x c #E2D9E6",
"c c #E3D9E6",
"v c #E2D8E7",
"b c #E3D8E7",
"n c #E3D9E7",
"m c #E4D7E8",
"M c #E5D7E8",
"N c #E5D6E9",
"B c #E4D7E9",
"V c #FBEFF4",
"C c #FAEEF5",
"Z c #FBEEF5",
"A c #FAEFF5",
"S c #FBEFF5",
"D c #FAECF6",
"F c #FBECF6",
"G c #FAEDF6",
"H c #FBEDF6",
"J c #FAECF7",
"K c #FBECF7",
"L c #FAEDF7",
"P c #FBEDF7",
/* pixels */
"                                ",
"                                ",
"                                ",
"               .                ",
"             ..V...             ",
"          ...ssVsss..           ",
"         .VVVsmssVVss..         ",
"          .ssVsssVVVVsV.        ",
"         ..VmssVssVsss.         ",
"        .ssVVxxssVssssV.        ",
"         .sxxVxsxmsmmxV.        ",
"        .VVVsssxVxmsxssV.       ",
"        .VsVsVsVVVsssxss.       ",
"       .ssVssssssssssssss.      ",
"        .qsssssss0sssss0.       ",
"         .0q0sr00rrrs00.        ",
"          .rrrrrrrrrrr.         ",
"           .<<<<<<<<<.          ",
"            <<<<<<<<<           ",
"           .<<<<<<<<<.          ",
"          ..<<<<<<<<<.          ",
"          .<.<<<<<<<.<.         ",
"          .<.<<<<<<<.<.         ",
"          .q.<<<<<<<.q.         ",
"           ...........          ",
"            .:::.:::.           ",
"             .:. .:.            ",
"             .:. .:.            ",
"             .%. .%.            ",
"             ... ...            ",
"                                ",
"                                "
};
